#!OML:ASF E:\Mandelcareful walks\Project 1\Capture day 1\Session 1\Subject1.ASF
:FULLY-SPECIFIED
:DEGREES
1024
root 4.06986 8.67827 1.45929 -131.289 -85.2928 129.226
lowerback 37.9608 1.47586 -1.58603
upperback 8.40581 -0.0113829 -0.781329
thorax -9.32725 -0.451192 0.0788237
lowerneck -31.9263 -0.635916 -3.69622
upperneck 16.6331 1.1477 -1.70291
head 10.4736 0.0150112 0.156408
rclavicle -3.27995e-015 1.63003e-014
rhumerus -12.5401 21.3175 -40.8989
rradius 56.5952
rwrist -16.842
rhand -4.11024 -24.7011
rfingers 7.12502
rthumb 21.6481 -53.5109
lclavicle -3.27995e-015 1.63003e-014
lhumerus -11.3983 -23.0621 41.0781
lradius 49.5197
lwrist 11.3498
lhand -20.1817 -20.332
lfingers 7.12502
lthumb 6.16445 9.55828
rfemur -81.1186 -59.132 -1.96016
rtibia 135.849
rfoot -25.4538 33.2671
rtoes -9.23376
lfemur -76.1654 53.1317 -10.3175
ltibia 141.639
lfoot -31.8363 -14.925
ltoes -10.587
1025
root 4.0559 8.51749 1.45591 -130.595 -85.326 128.426
lowerback 37.9208 1.48349 -1.62575
upperback 8.38783 -0.00618101 -0.737749
thorax -9.33362 -0.447039 0.143902
lowerneck -31.911 -0.741986 -3.8611
upperneck 16.7283 1.01504 -1.43349
head 10.5042 -0.0206998 0.25852
rclavicle -1.64991e-014 -1.21259e-014
rhumerus -12.9052 22.3504 -41.2628
rradius 56.9224
rwrist -16.6102
rhand -4.37554 -24.6558
rfingers 7.12502
rthumb 21.3933 -53.4947
lclavicle -1.64991e-014 -1.21259e-014
lhumerus -11.6772 -24.3597 41.5363
lradius 50.2667
lwrist 12.0204
lhand -19.9654 -20.1188
lfingers 7.12502
lthumb 6.37323 9.76534
rfemur -82.6636 -61.3651 -1.99984
rtibia 137.1
rfoot -25.5477 34.4548
rtoes -9.75644
lfemur -76.754 56.3284 -9.78536
ltibia 142.985
lfoot -32.2498 -16.4379
ltoes -10.3138
1026
root 4.04698 8.37724 1.45454 -127.627 -85.1231 125.255
lowerback 37.9645 1.55101 -1.9412
upperback 8.43112 -0.0553355 -0.778363
thorax -9.29901 -0.469261 0.285176
lowerneck -31.8749 -0.763652 -3.80431
upperneck 16.778 0.962648 -1.4404
head 10.5177 -0.0419232 0.238033
rclavicle -9.93923e-016 -4.37326e-015
rhumerus -13.144 23.3049 -41.6205
rradius 57.2551
rwrist -16.5824
rhand -4.71327 -24.6146
rfingers 7.12502
rthumb 21.0689 -53.49
lclavicle -9.93923e-016 -4.37326e-015
lhumerus -11.8858 -25.8366 41.8712
lradius 50.9967
lwrist 12.9092
lhand -20.4181 -19.8498
lfingers 7.12502
lthumb 5.93617 10.047
rfemur -83.9657 -63.5628 -2.59225
rtibia 138.185
rfoot -25.4459 35.9646
rtoes -10.4174
lfemur -78.3165 57.082 -10.2228
ltibia 144.012
lfoot -31.6886 -16.509
ltoes -11.91
1027
root 4.03073 8.23265 1.45485 -125.896 -85.0511 123.37
lowerback 37.5709 1.56542 -2.1077
upperback 8.71998 -0.102543 -0.750655
thorax -8.84054 -0.504564 0.419772
lowerneck -32.0657 -0.747722 -3.63186
upperneck 16.7765 0.982283 -1.71553
head 10.5511 -0.0612206 0.112188
rclavicle 3.97569e-016 -1.39149e-015
rhumerus -13.1668 24.1567 -41.8138
rradius 57.6943
rwrist -16.655
rhand -4.98756 -24.7189
rfingers 7.12502
rthumb 20.8054 -53.6234
lclavicle 3.97569e-016 -1.39149e-015
lhumerus -12.0147 -27.0394 42.2298
lradius 51.7163
lwrist 13.8491
lhand -21.5621 -19.6862
lfingers 7.12502
lthumb 4.83161 10.2387
rfemur -85.2455 -65.7518 -3.15212
rtibia 139.246
rfoot -25.1086 37.6307
rtoes -10.5667
lfemur -79.5785 58.5635 -10.1885
ltibia 145.036
lfoot -31.2986 -17.3168
ltoes -13.575
1028
root 4.00599 8.08219 1.45409 -126.732 -85.2412 124.183
lowerback 36.8954 1.51642 -1.98115
upperback 9.01207 -0.0899756 -0.637882
thorax -8.28282 -0.512726 0.466994
lowerneck -32.3473 -0.821753 -3.62444
upperneck 16.8713 0.896016 -1.72215
head 10.6324 -0.10508 0.0922172
rclavicle 2.72335e-014 1.76918e-014
rhumerus -13.2912 25.1884 -42.0091
rradius 58.1394
rwrist -16.9236
rhand -5.30178 -25.032
rfingers 7.12502
rthumb 20.5034 -53.9693
lclavicle 2.72335e-014 1.76918e-014
lhumerus -12.2188 -28.372 42.6444
lradius 52.3942
lwrist 14.6468
lhand -20.416 -19.5836
lfingers 7.12502
lthumb 5.93822 10.3132
rfemur -86.8652 -68.0005 -3.07253
rtibia 140.296
rfoot -24.1784 39.7139
rtoes -9.16627
lfemur -81.0858 61.2504 -9.4954
ltibia 146.26
lfoot -30.7962 -19.3521
ltoes -14.3088
1029
root 3.98271 7.9339 1.45062 -127.131 -85.3416 124.54
lowerback 36.5117 1.51003 -1.95442
upperback 9.06552 -0.060931 -0.572304
thorax -8.08991 -0.499334 0.510705
lowerneck -32.3379 -0.991692 -3.81438
upperneck 17.0734 0.667035 -1.34933
head 10.7048 -0.172806 0.219659
rclavicle 1.2921e-014 -1.78906e-015
rhumerus -13.7638 26.3549 -42.3981
rradius 58.6567
rwrist -17.4527
rhand -5.52178 -25.4673
rfingers 7.12502
rthumb 20.292 -54.4273
lclavicle 1.2921e-014 -1.78906e-015
lhumerus -12.579 -29.9824 43.0758
lradius 53.13
lwrist 15.578
lhand -22.0806 -19.4994
lfingers 7.12502
lthumb 4.33097 10.4363
rfemur -88.4829 -70.3665 -3.15532
rtibia 141.348
rfoot -22.669 42.4093
rtoes -6.61631
lfemur -82.4396 64.0019 -8.6546
ltibia 147.443
lfoot -30.1261 -21.6755
ltoes -14.512
1030
root 3.96372 7.79097 1.4494 -126.257 -85.3413 123.555
lowerback 36.2594 1.51201 -2.05484
upperback 9.11249 -0.0772258 -0.521848
thorax -7.94852 -0.507798 0.622409
lowerneck -32.2024 -1.19862 -4.06615
upperneck 17.152 0.406777 -0.992994
head 10.7129 -0.258823 0.345734
rclavicle 4.07509e-015 3.10104e-014
rhumerus -14.1225 27.4466 -42.7534
rradius 59.2514
rwrist -18.135
rhand -5.63192 -26.072
rfingers 7.12502
rthumb 20.1862 -55.0431
lclavicle 4.07509e-015 3.10104e-014
lhumerus -13.0036 -31.4387 43.6108
lradius 53.9438
lwrist 16.5053
lhand -23.3784 -18.9661
lfingers 7.12502
lthumb 3.0777 10.9915
rfemur -89.9371 -72.5736 -3.56675
rtibia 142.33
rfoot -21.7466 44.6635
rtoes -5.4384
lfemur -83.4451 66.157 -7.85377
ltibia 148.422
lfoot -29.5298 -23.7283
ltoes -14.9271
1031
root 3.94402 7.65383 1.45144 -125.54 -85.3766 122.732
lowerback 35.7982 1.48677 -2.11292
upperback 9.33147 -0.115191 -0.446283
thorax -7.54235 -0.53673 0.745335
lowerneck -32.1809 -1.36855 -4.25567
upperneck 17.08 0.211585 -0.812923
head 10.6846 -0.334634 0.40764
rclavicle -8.94531e-015 -1.25234e-014
rhumerus -14.1559 28.4251 -42.917
rradius 59.837
rwrist -18.7448
rhand -5.592 -26.7798
rfingers 7.12502
rthumb 20.2245 -55.7469
lclavicle -8.94531e-015 -1.25234e-014
lhumerus -13.3548 -32.7114 44.1923
lradius 54.7065
lwrist 16.96
lhand -23.5485 -18.3303
lfingers 7.12502
lthumb 2.91342 11.6295
rfemur -91.4684 -74.4116 -3.82768
rtibia 143.196
rfoot -21.2796 46.3664
rtoes -5.79097
lfemur -84.4141 68.1631 -7.00822
ltibia 149.312
lfoot -28.9824 -25.7906
ltoes -15.2301
1032
root 3.92686 7.52369 1.45124 -126.25 -85.4936 123.402
lowerback 35.3313 1.47999 -2.06731
upperback 9.49412 -0.0862795 -0.358765
thorax -7.19701 -0.530701 0.801541
lowerneck -32.0886 -1.53013 -4.42983
upperneck 17.0161 0.00306419 -0.571371
head 10.6486 -0.40637 0.487889
rclavicle -2.34566e-014 -2.0276e-014
rhumerus -14.3944 29.3647 -43.1536
rradius 60.508
rwrist -19.3221
rhand -5.57025 -27.196
rfingers 7.12502
rthumb 20.2454 -56.161
lclavicle -2.34566e-014 -2.0276e-014
lhumerus -13.6144 -34.0602 44.6897
lradius 55.4177
lwrist 17.3682
lhand -23.6323 -18.0894
lfingers 7.12502
lthumb 2.83245 11.8715
rfemur -93.6156 -75.89 -3.25734
rtibia 144.002
rfoot -20.1989 47.8695
rtoes -5.61848
lfemur -85.6681 70.2788 -6.17235
ltibia 150.145
lfoot -28.2149 -27.9064
ltoes -15.2751
1033
root 3.91433 7.39673 1.44786 -126.787 -85.5528 123.898
lowerback 34.9659 1.5188 -2.11202
upperback 9.66691 -0.0341548 -0.289027
thorax -7.00417 -0.510946 0.886227
lowerneck -32.1926 -1.70729 -4.58013
upperneck 17.1059 -0.221878 -0.331104
head 10.7031 -0.487217 0.560311
rclavicle 9.93923e-016 1.35174e-014
rhumerus -14.7583 30.2969 -43.5047
rradius 61.179
rwrist -20.1069
rhand -5.85772 -27.1521
rfingers 7.12502
rthumb 19.9691 -56.1461
lclavicle 9.93923e-016 1.35174e-014
lhumerus -13.8026 -35.386 45.0951
lradius 56.1303
lwrist 18.0266
lhand -23.4865 -18.0829
lfingers 7.12502
lthumb 2.97331 11.8761
rfemur -96.4916 -77.2556 -1.96321
rtibia 144.783
rfoot -18.7675 49.1729
rtoes -4.9116
lfemur -86.92 72.2656 -5.46261
ltibia 150.882
lfoot -27.4671 -29.9753
ltoes -15.1499
